HIERARCHY
ROOT root
{
	OFFSET 0.000000 0.000000 0.000000
	CHANNELS 6 Xposition Yposition Zposition Zrotation Yrotation Xrotation
	JOINT lhip
	{
		OFFSET 0.058581 -0.082280 -0.017664
		CHANNELS 3 Zrotation Yrotation Xrotation
		JOINT lknee
		{
			OFFSET 0.043451 -0.386469 0.008037
			CHANNELS 3 Zrotation Yrotation Xrotation
			JOINT lankle
			{
				OFFSET -0.014790 -0.426874 -0.037428
				CHANNELS 3 Zrotation Yrotation Xrotation
				JOINT ltoe
				{
					OFFSET 0.041054 -0.060286 0.122042
					CHANNELS 3 Zrotation Yrotation Xrotation
					End Site
					{
						OFFSET 0.000000 0.000000 0.000000
					}
				}
			}
		}
	}
	JOINT rhip
	{
		OFFSET -0.060310 -0.090513 -0.013543
		CHANNELS 3 Zrotation Yrotation Xrotation
		JOINT rknee
		{
			OFFSET -0.043257 -0.383688 -0.004843
			CHANNELS 3 Zrotation Yrotation Xrotation
			JOINT rankle
			{
				OFFSET 0.019056 -0.420046 -0.034562
				CHANNELS 3 Zrotation Yrotation Xrotation
				JOINT rtoe
				{
					OFFSET -0.034840 -0.062106 0.130323
					CHANNELS 3 Zrotation Yrotation Xrotation
					End Site
					{
						OFFSET 0.000000 0.000000 0.000000
					}
				}
			}
		}
	}
	JOINT lowerback
	{
		OFFSET 0.004439 0.124404 -0.038385
		CHANNELS 3 Zrotation Yrotation Xrotation
		JOINT upperback
		{
			OFFSET 0.004488 0.137956 0.026820
			CHANNELS 3 Zrotation Yrotation Xrotation
			JOINT chest
			{
				OFFSET -0.002265 0.056032 0.002855
				CHANNELS 3 Zrotation Yrotation Xrotation
				JOINT lowerneck
				{
					OFFSET -0.013390 0.211636 -0.033468
					CHANNELS 3 Zrotation Yrotation Xrotation
					JOINT upperneck
					{
						OFFSET 0.010113 0.088937 0.050410
						CHANNELS 3 Zrotation Yrotation Xrotation
						End Site
						{
							OFFSET 0.000000 0.000000 0.000000
						}
					}
				}
				JOINT lclavicle
				{
					OFFSET 0.071702 0.114000 -0.018898
					CHANNELS 3 Zrotation Yrotation Xrotation
					JOINT lshoulder
					{
						OFFSET 0.122921 0.045205 -0.019046
						CHANNELS 3 Zrotation Yrotation Xrotation
						JOINT lelbow
						{
							OFFSET 0.255332 -0.015649 -0.022946
							CHANNELS 3 Zrotation Yrotation Xrotation
							JOINT lwrist
							{
								OFFSET 0.265709 0.012698 -0.007375
								CHANNELS 3 Zrotation Yrotation Xrotation
								End Site
								{
									OFFSET 0.000000 0.000000 0.000000
								}
							}
						}
					}
				}
				JOINT rclavicle
				{
					OFFSET -0.082954 0.112472 -0.023707
					CHANNELS 3 Zrotation Yrotation Xrotation
					JOINT rshoulder
					{
						OFFSET -0.113228 0.046853 -0.008472
						CHANNELS 3 Zrotation Yrotation Xrotation
						JOINT relbow
						{
							OFFSET -0.260127 -0.014369 -0.031269
							CHANNELS 3 Zrotation Yrotation Xrotation
							JOINT rwrist
							{
								OFFSET -0.269108 0.006794 -0.006027
								CHANNELS 3 Zrotation Yrotation Xrotation
								End Site
								{
									OFFSET 0.000000 0.000000 0.000000
								}
							}
						}
					}
				}
			}
		}
	}
}
MOTION
Frames: 11
Frame Time: 0.033333
1.252600 0.687787 0.977498 -89.896748 0.582561 84.558455 -1.447804 -1.525651 -1.236662 -0.804511 -6.643461 11.649444 1.377406 10.852049 -15.232918 0.000000 -0.000000 0.000000 2.077158 -1.432204 -0.757442 -4.195265 -0.489560 12.288821 3.068674 -8.858552 -15.659816 0.000000 -0.000000 0.000000 -1.054521 2.550267 12.096296 -0.813944 -2.179945 -2.361781 -0.224592 -0.218348 2.608473 3.721565 2.232065 -13.204878 4.433974 -5.832676 -2.787859 -22.731139 -4.198968 -0.438306 -56.010683 -9.436490 13.158691 -5.431923 -20.235576 17.025281 -4.808765 -3.511067 -5.099035 21.179402 6.426883 -1.237710 60.772357 3.257674 21.654485 -0.106327 30.487265 20.059012 3.882610 -0.282081 3.071491 
1.251877 0.687868 0.977845 -89.620277 0.679871 84.492876 -1.327734 -1.605183 -1.132271 -0.844845 -6.818835 11.684384 1.366439 10.835062 -15.168129 0.000000 -0.000000 0.000000 2.170945 -1.554798 -0.482153 -4.119959 -0.406113 12.047859 3.056021 -9.215664 -15.667430 0.000000 -0.000000 0.000000 -0.998086 2.473418 11.945166 -0.740437 -2.332294 -1.941042 -0.159416 -0.250681 2.641625 3.632279 2.051418 -12.914583 4.491253 -5.682237 -3.402221 -21.989396 -4.527808 -0.173953 -55.699194 -9.579172 13.242146 -6.222465 -20.678657 17.810985 -3.637559 -3.930869 -5.862825 20.365495 6.464967 -1.326548 60.699306 2.766659 22.050676 0.116353 31.503243 21.438976 1.316267 1.080892 4.568995 
1.252985 0.688039 0.978153 -89.003453 0.860774 84.650442 -1.141837 -2.092207 -1.680876 -0.949289 -6.968497 12.209026 1.430244 10.847763 -15.301066 0.000000 -0.000000 0.000000 2.347365 -1.648586 -0.698777 -4.022457 -0.478635 12.090170 2.971512 -9.687095 -15.721042 0.000000 -0.000000 0.000000 -0.898176 2.367128 12.261215 -0.541145 -2.729582 -2.326705 -0.153010 -0.356508 3.001128 3.674228 1.981385 -13.165105 4.499268 -5.656244 -3.678012 -21.238534 -4.557178 -0.097179 -55.272185 -9.730587 13.244413 -6.854533 -21.515163 18.524802 -1.993707 -4.730117 -6.510607 19.770528 6.388467 -1.466264 60.240486 2.314267 22.349058 0.389810 32.879313 22.692565 -2.008054 2.821929 5.866630 
1.253493 0.688679 0.978587 -88.849255 0.888866 84.834720 -1.064398 -2.199798 -2.086655 -1.106642 -7.259928 12.501170 1.619165 11.244057 -15.315471 0.000000 -0.000000 0.000000 2.439822 -1.542627 -1.024974 -3.971049 -0.356599 12.287807 2.913026 -10.057987 -15.803038 0.000000 -0.000000 0.000000 -0.958128 2.303070 12.587392 -0.511524 -2.743862 -2.811528 -0.093137 -0.325980 3.299465 3.755558 1.997833 -12.970862 4.675158 -5.557400 -4.137157 -20.309614 -4.569078 -0.337535 -54.746839 -9.692896 13.288144 -7.350820 -21.911412 19.927305 -0.038725 -4.450874 -5.868483 19.012303 6.348230 -1.490207 59.688106 1.832660 22.476219 1.222743 33.562611 23.876156 -5.476615 4.252688 6.055085 
1.253683 0.689160 0.978899 -88.952230 0.889148 85.011886 -0.998908 -2.067982 -2.290678 -1.138068 -7.197664 12.570217 1.681845 11.199279 -15.317630 0.000000 -0.000000 0.000000 2.442440 -1.723063 -1.303419 -3.919767 -0.125540 12.405015 2.907889 -10.034248 -15.846169 0.000000 -0.000000 0.000000 -0.943608 2.405041 12.485322 -0.517547 -2.706254 -2.653672 -0.078551 -0.219641 3.310277 3.666419 1.895091 -12.875233 4.808967 -5.662234 -4.531785 -19.892065 -4.598393 -0.442969 -54.216176 -9.725506 13.119058 -7.923471 -21.749470 20.493067 -0.497058 -4.335954 -5.797187 18.690468 6.223639 -1.487865 59.310435 1.560702 22.206886 1.121501 33.994711 24.177284 -5.389364 4.708041 6.806949 
1.254157 0.689654 0.979251 -88.923472 0.923397 85.222365 -0.866541 -2.255770 -2.642042 -1.281144 -7.213789 12.751649 1.665560 11.288973 -15.298528 0.000000 -0.000000 0.000000 2.489714 -1.747387 -1.588029 -3.852590 -0.056182 12.430283 2.925986 -10.147077 -15.824478 0.000000 -0.000000 0.000000 -0.910065 2.540244 12.602323 -0.465062 -2.765500 -2.683504 -0.034185 -0.228823 3.462483 3.590444 1.870099 -13.189628 4.920322 -5.849146 -4.857618 -19.339128 -4.674183 -0.498131 -53.658172 -9.662148 12.847127 -8.397763 -21.437993 20.761537 -0.699035 -4.763797 -5.148187 18.239940 6.090783 -1.556573 58.830823 1.156834 21.951838 1.267866 34.569564 24.983253 -4.732053 4.689755 7.487135 
1.254349 0.690045 0.979522 -88.901578 0.859839 85.302798 -0.942978 -2.245638 -2.762317 -1.230473 -7.166880 12.798112 1.718684 11.358570 -15.305030 0.000000 -0.000000 0.000000 2.431373 -1.615518 -1.682217 -3.823638 0.003302 12.441235 2.908291 -10.375424 -15.779273 0.000000 -0.000000 0.000000 -0.943391 2.487205 12.809718 -0.502681 -2.732779 -2.575032 -0.022503 -0.244359 3.542743 3.629743 1.867105 -13.185286 5.045135 -5.728781 -5.378970 -18.945079 -4.610794 -0.345244 -53.197328 -9.486716 12.530165 -8.576167 -20.894103 20.780182 -0.442177 -5.357080 -5.221924 17.714225 5.847522 -1.507582 58.579603 0.861087 21.735973 1.721348 34.348600 25.363791 -5.915117 5.276365 7.191089 
1.254144 0.690539 0.980070 -89.177639 0.814855 85.628270 -0.861265 -2.060686 -3.028015 -1.359991 -7.186223 12.745221 1.719485 11.447163 -15.365617 0.000000 -0.000000 0.000000 2.410092 -1.580588 -2.071412 -3.768614 0.267181 12.472920 2.894831 -10.383264 -15.706580 0.000000 -0.000000 0.000000 -0.955733 2.428410 12.783685 -0.588875 -2.543004 -2.676492 -0.013393 -0.289659 3.638529 3.624538 1.735321 -13.218223 5.190353 -5.560723 -5.964169 -18.934548 -4.104244 -0.277716 -52.673610 -8.910972 12.067228 -8.624154 -20.415640 20.521106 0.375734 -5.866301 -4.838938 17.382373 5.538253 -1.384363 58.233380 0.514858 21.575240 2.451440 34.061968 25.827361 -6.781272 5.439104 6.920538 
1.254539 0.690940 0.980540 -89.241599 0.817376 85.907085 -0.840168 -2.215506 -3.459114 -1.354942 -7.039787 12.976396 1.850939 11.603565 -15.440799 0.000000 -0.000000 0.000000 2.396735 -1.434019 -2.482883 -3.698685 0.264376 12.631856 2.927372 -10.458287 -15.780087 0.000000 -0.000000 0.000000 -0.903633 2.311917 13.026374 -0.631485 -2.510662 -2.934928 -0.063005 -0.299440 3.886690 3.593083 1.842445 -13.690614 5.349808 -5.425097 -6.299345 -18.622643 -3.458263 -0.141909 -52.677321 -8.410286 11.708838 -8.771471 -19.834611 20.467086 0.570689 -6.319541 -4.700922 16.878687 4.902169 -1.370135 58.228212 0.148406 21.398995 3.096000 33.830198 26.642437 -7.487380 5.981605 7.195615 
1.254529 0.691731 0.980989 -89.496652 0.814654 86.198164 -0.740768 -2.319747 -3.882911 -1.500284 -6.883123 13.192777 2.052281 11.907403 -15.428791 0.000000 -0.000000 0.000000 2.408873 -1.326416 -2.954154 -3.593761 0.388055 12.841615 2.711743 -10.482317 -15.857527 0.000000 -0.000000 0.000000 -0.746266 2.323160 13.400974 -0.810748 -2.484393 -3.184042 -0.126224 -0.244267 3.886139 3.489035 1.578212 -13.630060 5.702998 -5.248615 -6.588562 -18.181920 -2.820973 0.354186 -53.191954 -7.133613 11.118285 -8.547364 -19.213625 19.945160 0.838723 -6.648335 -4.836399 16.128596 4.637963 -0.810527 58.627860 -0.993046 20.959363 3.520850 33.895185 27.174513 -7.669464 5.851497 6.357417 
1.254664 0.692306 0.981219 -89.592794 0.823904 86.536984 -0.693256 -2.411556 -4.493661 -1.573249 -6.775045 13.656402 2.240812 12.132065 -15.528663 0.000000 -0.000000 0.000000 2.427039 -1.205435 -3.584197 -3.501398 0.534434 13.327579 2.680928 -10.625605 -16.155934 0.000000 -0.000000 0.000000 -0.633909 2.233201 13.794171 -0.875923 -2.375074 -3.575534 -0.174248 -0.264835 3.959677 3.489651 1.322575 -13.945509 5.604226 -5.380489 -6.799854 -18.100425 -1.731090 0.625512 -53.606560 -6.128947 10.787811 -8.839696 -18.923738 20.663526 -0.647934 -6.426884 -5.544269 15.683730 3.916120 -0.389565 58.670568 -1.828680 20.887829 4.191542 34.413168 28.102558 -7.633333 5.430664 5.662039 
